<?xml version="1.0" encoding="utf-8"?>
<!-- Generator: Adobe Illustrator 22.0.1, SVG Export Plug-In . SVG Version: 6.00 Build 0)  -->
<svg version="1.1" id="图层_1" xmlns="http://www.w3.org/2000/svg" xmlns:xlink="http://www.w3.org/1999/xlink" x="0px" y="0px"
	 viewBox="0 0 435 173" style="enable-background:new 0 0 435 173;" xml:space="preserve">
<style type="text/css">
	.st0{fill:#FFFFFF;stroke:#FFFFFF;stroke-miterlimit:10;}
</style>
<g transform="translate(0.000000,566.000000) scale(0.100000,-0.100000)">
	<path class="st0" d="M3135,5564c-186-25-303-65-570-194c-296-143-338-155-525-155c-104,0-136,4-192,23c-116,40-270,167-331,273
		c-23,40-32,45-55,30c-36-22,109-197,230-277c147-98,263-125,623-144c399-21,610-63,758-153c44-27,65-53,33-41c-24,9-122-24-156-52
		c-111-94-92-298,34-363c60-31,128-37,186-17c24,8,45,14,47,12c2-1-13-21-32-44c-47-54-139-99-236-114c-88-14-71,6-164-192
		c-55-117-58-136-20-136c6,0,39,60,74,133c35,72,65,133,66,135c1,1,36,8,77,16c142,24,234,90,293,209c86,175,44,335-120,460
		c-94,71-228,123-410,158c-65,13-363,39-440,39c-68,0-64,10,15,34c30,10,111,45,180,78c393,191,520,232,711,231c119,0,214-23,314-73
		c80-41,189-125,243-186l33-37l32,18c18,10,68,42,111,72l80,54l66-30c38-18,92-34,127-37l61-7l-5,26c-5,23-12,27-72,37
		c-82,14-144,48-214,117c-48,48-55,52-72,39c-18-13-17-16,23-64l42-50l-82-56l-83-55l-40,38c-118,113-251,192-377,225
		C3339,5559,3186,5571,3135,5564z M3180,4859c53-30,82-86,82-160c0-93-53-159-139-175c-70-13-157,36-184,104c-14,35-11,130,5,160
		C2988,4873,3097,4906,3180,4859z"/>
	<path class="st0" d="M1555,4911c-109-50-159-164-123-282c16-56,70-114,123-135c55-21,174-16,223,10l32,17v104v105h-75
		c-73,0-75-1-75-25c0-23,3-25,50-25h50v-64c0-63-1-64-31-75c-98-34-200,4-235,88c-33,79-9,174,55,217c56,37,116,41,173,11
		c46-23,48-23,64-6c21,23,11,37-40,60C1694,4935,1608,4935,1555,4911z"/>
	<path class="st0" d="M120,4706v-216h31h30l-3,105c-2,58-1,105,1,105s49-47,103-105c89-93,104-105,134-105c19,0,34,3,34,7
		s-48,55-106,115l-107,108l69,63c38,36,84,77,102,92c40,34,41,45,1,45c-26,0-50-16-130-91l-99-91l-1,76c-2,105-1,101-31,104l-28,3
		V4706z"/>
	<path class="st0" d="M626,4806c-48-113-51-136-17-136c12,0,27,23,50,80c19,44,36,82,40,84c3,3,32-59,63-136c66-162,75-152-91-94
		c-57,20-110,35-116,32c-7-2-16-17-19-32c-4-15-16-46-27-68c-10-22-19-41-19-43s14-3,30-3c26,0,32,6,46,40c9,22,22,40,29,40
		c6,0,64-18,128-40c63-22,131-40,151-40h35l-45,108c-127,305-136,322-163,322C678,4920,670,4908,626,4806z"/>
	<path class="st0" d="M970,4705v-215h25h25v173l1,172l22-27c12-14,67-92,122-172c99-144,100-145,138-146h37l-2,213l-3,212l-27,3
		l-28,3v-177v-177l-27,40c-16,22-70,101-122,176c-90,129-97,137-128,137h-33V4705z"/>
	<path class="st0" d="M2034,4889c-38-74-84-194-80-206c3-7,14-13,24-13c14,0,27,21,53,85c19,47,36,85,40,85c3,0,14-26,26-57
		c12-32,37-95,57-140c19-46,30-83,24-83s-62,18-125,40c-64,22-119,40-123,40c-6,0-39-67-67-137c-3-9,5-13,26-13c27,0,33,5,47,40
		c9,22,20,40,25,40s64-18,132-40c67-23,136-40,153-38l31,3l-44,105c-136,322-135,320-160,320C2058,4920,2045,4910,2034,4889z"/>
	<path class="st0" d="M2510,4895v-25h121h120l-22-32c-13-18-67-93-121-165c-63-85-98-142-98-158v-25h155h155v25v24l-120,3l-119,3
		l61,85c34,47,88,120,120,163c34,45,58,88,58,102v25h-155h-155V4895z"/>
	<path class="st0" d="M3409,4908c-1-18-1-68,0-255l1-163h25h25l2,170l3,171l119-171c114-163,120-170,152-170h34v215v215h-25h-25
		l-2-175l-3-175l-120,172c-110,158-123,173-153,176C3421,4920,3410,4917,3409,4908z"/>
	<path class="st0" d="M3880,4705v-215h140h140v25v25h-110h-110v75v75h100h100v25v25h-100h-100v65v65h105h105v25v25h-135h-135V4705z"
		/>
</g>
</svg>
